<svg width="170" height="43" viewBox="0 0 170 43" fill="none" xmlns="http://www.w3.org/2000/svg">
<path d="M23.3947 9.95736C23.3947 8.90319 23.1871 7.85935 22.7837 6.88542C22.3803 5.9115 21.789 5.02657 21.0436 4.28116C20.2982 3.53575 19.4133 2.94446 18.4393 2.54105C17.4654 2.13763 16.4216 1.93 15.3674 1.93C14.2395 1.92952 13.1242 2.16671 12.0941 2.62613C11.0641 3.08555 10.1424 3.75688 9.38914 4.59635C8.6359 5.43583 8.06802 6.42462 7.72251 7.49827C7.377 8.57192 7.26162 9.70633 7.38388 10.8276C4.17294 12.5747 1.93 17.0167 1.93 21.5835C1.93 24.9395 3.13748 28.9532 5.04988 31.0106C4.94945 32.2435 5.09903 33.484 5.48964 34.6577C5.88024 35.8314 6.50383 36.9141 7.32302 37.841C8.14221 38.7678 9.14013 39.5197 10.2569 40.0516C11.3738 40.5834 12.5865 40.8842 13.8224 40.9361C15.0583 40.9879 16.2919 40.7896 17.4493 40.3531C18.6067 39.9165 19.664 39.2508 20.5579 38.3958C21.4518 37.5407 22.1638 36.514 22.6513 35.3771" stroke="white" stroke-width="3.86" stroke-linecap="round" stroke-linejoin="round"/>
<path d="M11.6263 16.2848C10.4458 16.015 7.77793 14.2645 7.37656 10.8512M7.5081 26.1942C6.30737 27.1386 5.34949 29.2871 5.04256 31.0072M23.3942 9.95736C23.3942 7.82837 24.2399 5.78658 25.7453 4.28116C27.2508 2.77574 29.2925 1.93 31.4215 1.93C32.4757 1.93 33.5195 2.13763 34.4935 2.54105C35.4674 2.94446 36.3523 3.53575 37.0977 4.28116C37.8431 5.02657 38.4344 5.9115 38.8378 6.88542C39.2413 7.85934 39.4489 8.90319 39.4489 9.95736C39.4489 10.2542 39.4343 10.5442 39.405 10.8276C42.616 12.5781 44.8555 17.0167 44.8555 21.5835C44.8555 24.9395 43.6514 28.9532 41.739 31.0106C41.8395 32.2435 41.6899 33.484 41.2993 34.6577C40.9087 35.8314 40.2851 36.9141 39.4659 37.841C38.6467 38.7678 37.6488 39.5197 36.532 40.0516C35.4152 40.5834 34.2025 40.8842 32.9666 40.9361C31.7307 40.9879 30.497 40.7896 29.3396 40.3531C28.1822 39.9165 27.1249 39.2508 26.231 38.3958C25.3371 37.5407 24.6251 36.514 24.1376 35.3771C23.6502 34.2402 23.3973 33.0166 23.3942 31.7796" stroke="white" stroke-width="3.86" stroke-linecap="round" stroke-linejoin="round"/>
<path d="M35.1635 16.2848C36.344 16.015 39.0119 14.2645 39.4133 10.8512M39.2817 26.1942C40.4825 27.1386 41.4404 29.2871 41.7473 31.0073" stroke="white" stroke-width="3.86" stroke-linecap="round" stroke-linejoin="round"/>
<path d="M60.2156 29.4371V14.1771H66.2556C68.1223 14.1771 69.4689 14.5904 70.2956 15.4171C70.9223 16.0437 71.2356 16.9037 71.2356 17.9971C71.2356 18.8771 71.0356 19.6237 70.6356 20.2371C70.2489 20.8371 69.6956 21.2304 68.9756 21.4171C69.9489 21.5771 70.6956 21.9704 71.2156 22.5971C71.7489 23.2104 72.0156 24.0104 72.0156 24.9971C72.0156 25.6904 71.8889 26.3171 71.6356 26.8771C71.3956 27.4371 71.0689 27.8904 70.6556 28.2371C70.0689 28.7037 69.3956 29.0237 68.6356 29.1971C67.8889 29.3571 67.1823 29.4371 66.5156 29.4371H60.2156ZM66.0756 20.5171C66.8089 20.5171 67.3689 20.3571 67.7556 20.0371C68.1423 19.7037 68.3356 19.2304 68.3356 18.6171C68.3356 18.0171 68.1556 17.5771 67.7956 17.2971C67.5823 17.1104 67.2956 16.9771 66.9356 16.8971C66.5889 16.8037 66.1489 16.7571 65.6156 16.7571H63.0956V20.5171H66.0756ZM66.1556 26.8571C66.6623 26.8571 67.1156 26.8171 67.5156 26.7371C67.9289 26.6571 68.2756 26.4971 68.5556 26.2571C68.9289 25.9504 69.1156 25.4571 69.1156 24.7771C69.1156 23.9904 68.8756 23.4771 68.3956 23.2371C67.9156 22.9837 67.2756 22.8571 66.4756 22.8571H63.0956V26.8571H66.1556ZM73.4404 29.4371V18.2171H76.1404V19.5571C76.5538 18.9837 77.0138 18.5771 77.5204 18.3371C78.0404 18.0971 78.6471 17.9771 79.3404 17.9771H79.6604V20.5771H79.0404C78.1871 20.5771 77.5204 20.8037 77.0404 21.2571C76.7338 21.5637 76.5071 21.9571 76.3604 22.4371C76.2138 22.9037 76.1404 23.5037 76.1404 24.2371V29.4371H73.4404ZM83.7757 29.6571C82.6824 29.6571 81.7957 29.3704 81.1157 28.7971C80.4357 28.2104 80.0957 27.3971 80.0957 26.3571C80.0957 25.2371 80.5224 24.3837 81.3757 23.7971C81.9891 23.3704 82.8624 23.0504 83.9957 22.8371L87.3357 22.2171C87.3091 21.5237 87.1291 20.9971 86.7957 20.6371C86.4624 20.2771 85.9624 20.0971 85.2957 20.0971C84.7757 20.0971 84.3157 20.2504 83.9157 20.5571C83.5291 20.8637 83.2891 21.2771 83.1957 21.7971H80.5157C80.7024 20.5571 81.2491 19.6104 82.1557 18.9571C83.0624 18.3037 84.1157 17.9771 85.3157 17.9771C85.9957 17.9771 86.6291 18.0771 87.2157 18.2771C87.8024 18.4637 88.3024 18.7437 88.7157 19.1171C89.1291 19.4771 89.4291 19.8971 89.6157 20.3771C89.8024 20.8571 89.9157 21.3371 89.9557 21.8171C90.0091 22.2971 90.0357 22.8904 90.0357 23.5971V29.4371H87.3357V27.9171C87.0557 28.4104 86.7157 28.7837 86.3157 29.0371C85.6891 29.4504 84.8424 29.6571 83.7757 29.6571ZM84.4357 27.5371C84.9691 27.5371 85.4491 27.4304 85.8757 27.2171C86.4357 26.9371 86.8224 26.5637 87.0357 26.0971C87.2491 25.6304 87.3691 24.9971 87.3957 24.1971L84.7157 24.7371C83.9957 24.8704 83.4757 25.0837 83.1557 25.3771C82.9157 25.6171 82.7957 25.9104 82.7957 26.2571C82.7957 26.6704 82.9424 26.9904 83.2357 27.2171C83.5424 27.4304 83.9424 27.5371 84.4357 27.5371ZM94.4522 29.4371H91.7522V18.2171H94.4522V29.4371ZM93.1122 16.9771C92.6455 16.9771 92.2522 16.8371 91.9322 16.5571C91.6122 16.2771 91.4522 15.9037 91.4522 15.4371C91.4522 14.9971 91.6122 14.6304 91.9322 14.3371C92.2522 14.0437 92.6455 13.8971 93.1122 13.8971C93.5655 13.8971 93.9522 14.0437 94.2722 14.3371C94.6055 14.6304 94.7722 14.9971 94.7722 15.4371C94.7722 15.8904 94.6122 16.2637 94.2922 16.5571C93.9722 16.8371 93.5788 16.9771 93.1122 16.9771ZM96.3084 29.4371V18.2171H99.0084V19.6371C99.4351 19.0371 99.8951 18.6104 100.388 18.3571C100.882 18.1037 101.442 17.9771 102.068 17.9771C103.802 17.9771 104.968 18.6037 105.568 19.8571C105.768 20.2971 105.895 20.7437 105.948 21.1971C106.002 21.6504 106.028 22.2437 106.028 22.9771V29.4371H103.348V22.9371C103.348 21.8571 103.162 21.1104 102.788 20.6971C102.468 20.3637 101.995 20.1971 101.368 20.1971C100.608 20.1971 100.042 20.4237 99.6684 20.8771C99.4417 21.1437 99.2751 21.5037 99.1684 21.9571C99.0617 22.3971 99.0084 22.9837 99.0084 23.7171V29.4371H96.3084ZM110.518 29.4371H107.818V18.2171H110.518V29.4371ZM109.178 16.9771C108.711 16.9771 108.318 16.8371 107.998 16.5571C107.678 16.2771 107.518 15.9037 107.518 15.4371C107.518 14.9971 107.678 14.6304 107.998 14.3371C108.318 14.0437 108.711 13.8971 109.178 13.8971C109.631 13.8971 110.018 14.0437 110.338 14.3371C110.671 14.6304 110.838 14.9971 110.838 15.4371C110.838 15.8904 110.678 16.2637 110.358 16.5571C110.038 16.8371 109.644 16.9771 109.178 16.9771ZM115.614 29.6571C114.521 29.6571 113.634 29.3704 112.954 28.7971C112.274 28.2104 111.934 27.3971 111.934 26.3571C111.934 25.2371 112.361 24.3837 113.214 23.7971C113.827 23.3704 114.701 23.0504 115.834 22.8371L119.174 22.2171C119.147 21.5237 118.967 20.9971 118.634 20.6371C118.301 20.2771 117.801 20.0971 117.134 20.0971C116.614 20.0971 116.154 20.2504 115.754 20.5571C115.367 20.8637 115.127 21.2771 115.034 21.7971H112.354C112.541 20.5571 113.087 19.6104 113.994 18.9571C114.901 18.3037 115.954 17.9771 117.154 17.9771C117.834 17.9771 118.467 18.0771 119.054 18.2771C119.641 18.4637 120.141 18.7437 120.554 19.1171C120.967 19.4771 121.267 19.8971 121.454 20.3771C121.641 20.8571 121.754 21.3371 121.794 21.8171C121.847 22.2971 121.874 22.8904 121.874 23.5971V29.4371H119.174V27.9171C118.894 28.4104 118.554 28.7837 118.154 29.0371C117.527 29.4504 116.681 29.6571 115.614 29.6571ZM116.274 27.5371C116.807 27.5371 117.287 27.4304 117.714 27.2171C118.274 26.9371 118.661 26.5637 118.874 26.0971C119.087 25.6304 119.207 24.9971 119.234 24.1971L116.554 24.7371C115.834 24.8704 115.314 25.0837 114.994 25.3771C114.754 25.6171 114.634 25.9104 114.634 26.2571C114.634 26.6704 114.781 26.9904 115.074 27.2171C115.381 27.4304 115.781 27.5371 116.274 27.5371ZM128.83 29.6571C127.71 29.6571 126.717 29.4104 125.85 28.9171C124.997 28.4237 124.33 27.7304 123.85 26.8371C123.37 25.9437 123.13 24.9171 123.13 23.7571C123.13 22.6371 123.37 21.6371 123.85 20.7571C124.33 19.8771 124.997 19.1971 125.85 18.7171C126.717 18.2237 127.71 17.9771 128.83 17.9771C130.177 17.9771 131.317 18.3237 132.25 19.0171C133.197 19.6971 133.81 20.6237 134.09 21.7971H131.15C130.977 21.2771 130.69 20.8771 130.29 20.5971C129.89 20.3171 129.404 20.1771 128.83 20.1771C127.95 20.1771 127.237 20.5037 126.69 21.1571C126.157 21.8104 125.89 22.6771 125.89 23.7571C125.89 24.8771 126.157 25.7771 126.69 26.4571C127.237 27.1237 127.95 27.4571 128.83 27.4571C129.47 27.4571 129.99 27.3037 130.39 26.9971C130.79 26.6771 131.064 26.2304 131.21 25.6571H134.13C133.877 26.8971 133.27 27.8771 132.31 28.5971C131.35 29.3037 130.19 29.6571 128.83 29.6571ZM140.272 29.6571C138.886 29.6571 137.686 29.3237 136.672 28.6571C135.659 27.9904 135.066 26.9904 134.892 25.6571H137.552C137.726 26.2571 138.046 26.7237 138.512 27.0571C138.979 27.3771 139.559 27.5371 140.252 27.5371C140.839 27.5371 141.312 27.4237 141.672 27.1971C142.046 26.9704 142.232 26.6504 142.232 26.2371C142.232 25.7837 142.012 25.4571 141.572 25.2571C141.146 25.0571 140.479 24.8704 139.572 24.6971C138.706 24.5237 137.986 24.3371 137.412 24.1371C136.839 23.9371 136.352 23.6171 135.952 23.1771C135.552 22.7237 135.352 22.1104 135.352 21.3371C135.352 20.2304 135.759 19.3971 136.572 18.8371C137.399 18.2637 138.439 17.9771 139.692 17.9771C141.012 17.9771 142.106 18.3104 142.972 18.9771C143.852 19.6437 144.392 20.5837 144.592 21.7971H142.052C141.906 21.2104 141.619 20.7837 141.192 20.5171C140.766 20.2371 140.259 20.0971 139.672 20.0971C139.139 20.0971 138.712 20.2037 138.392 20.4171C138.086 20.6171 137.932 20.8904 137.932 21.2371C137.932 21.6504 138.139 21.9437 138.552 22.1171C138.966 22.2904 139.619 22.4637 140.512 22.6371C141.432 22.8104 142.179 22.9971 142.752 23.1971C143.339 23.3837 143.839 23.7037 144.252 24.1571C144.679 24.6104 144.892 25.2371 144.892 26.0371C144.892 27.1437 144.479 28.0237 143.652 28.6771C142.839 29.3304 141.712 29.6571 140.272 29.6571ZM153.027 29.4371H150.007L155.387 14.1771H158.547L163.927 29.4371H160.907L159.867 26.2971H154.047L153.027 29.4371ZM156.967 17.3171L154.867 23.7771H159.067L156.967 17.3171ZM167.707 29.4371H164.827V14.1771H167.707V29.4371Z" fill="white"/>
</svg>
